<?xml version="1.0"?>
<svg width="557" height="214" xmlns="http://www.w3.org/2000/svg" xmlns:svg="http://www.w3.org/2000/svg" version="1.2">
 <title id="title1">homomorphic</title>\n
 <g class="layer">
  <title>Layer 1</title>
  <g id="g1"/>
  <g id="svg_1">
   <g id="g11" stroke-width="26.75">
    <path d="m541.7,106.73a34.37,34.37 0 0 1 -34.38,34.37a34.37,34.37 0 0 1 -34.37,-34.37a34.37,34.37 0 0 1 34.37,-34.38a34.37,34.37 0 0 1 34.38,34.38z" fill="none" id="path6-2-0" stroke="#ffffff" stroke-width="26.75"/>
    <path d="m95.88,14.2c-47.57,0 -75.71,24.9 -80.67,62.08c-4.96,37.18 22.17,71.52 61.93,78.39c39.77,6.87 78.44,-16.09 88.59,-53.43c4.17,-17.98 20.14,-29.38 37.46,-27.53c17.32,1.85 30.52,16.36 30.78,35.6l0.25,33.75" fill="none" id="path6-18-3-3" stroke="#ffffff" stroke-width="26.67"/>
    <path d="m404.41,140.35c-13.92,0.09 -26.52,-8.23 -31.92,-21.06c-5.39,-12.84 -2.51,-27.66 7.31,-37.54c9.81,-9.88 24.61,-12.86 37.48,-7.56c12.88,5.31 21.28,17.86 21.07,33.68l0.11,55.76c-0.15,19.83 -15.54,35.22 -34.53,35.22" fill="none" id="path6-3-9-6" stroke="#ffffff" stroke-width="26.75"/>
    <path d="m268.39,11.31l-0.04,92.49c-0.23,14.17 6.19,25.71 16.81,32.02c10.62,6.32 23.82,6.45 34.56,0.34c10.75,-6.12 17.38,-17.52 17.23,-31.44l0.33,-34.04" fill="none" id="path8-2-1" stroke="#ffffff" stroke-width="26.75"/>
   </g>
   <rect fill="#ffffff" height="23.54" id="rect11" stroke-width="5.15" width="26.74" x="220.47" y="152.96"/>
   <rect fill="#ffffff" height="23.54" id="rect11-5" stroke-width="5.15" width="26.74" x="324" y="39"/>
   <rect fill="#ffffff" height="26.29" id="rect11-8" stroke-width="5.15" width="26.74" x="107.49" y="1.18"/>
   <rect fill="#ffffff" height="26.29" id="rect11-8-3" stroke-width="5.15" width="26.74" x="366.56" y="186.02"/>
  </g>
 </g></svg>